<svg width="67" height="25" viewBox="0 0 67 25" fill="none" xmlns="http://www.w3.org/2000/svg">
<path d="M48.4268 9.09934H46.0248V17.3911C46.0237 17.5475 45.8983 17.6739 45.7433 17.6751H43.8934C43.7384 17.6739 43.6131 17.5475 43.6119 17.3911V9.09934H41.1924C41.1191 9.10235 41.0478 9.07524 40.9947 9.02422C40.9416 8.97321 40.9113 8.90265 40.9108 8.82871V7.36023C40.9112 7.28629 40.9416 7.21574 40.9947 7.16472C41.0478 7.11371 41.1191 7.0866 41.1924 7.08961H48.4224C48.5783 7.08206 48.711 7.203 48.7193 7.36023V8.82871C48.711 8.98415 48.581 9.10439 48.4268 9.09934Z" fill="#FDFDFD"/>
<path d="M56.1297 17.6196C55.1827 17.7562 54.2267 17.8185 53.2702 17.806C51.4468 17.806 49.8367 17.3357 49.8367 14.7426V10.011C49.8367 7.41791 51.4622 6.96317 53.2834 6.96317C54.2326 6.95005 55.1813 7.01161 56.1209 7.14728C56.3189 7.17612 56.4024 7.2471 56.4024 7.43122V8.76216C56.4013 8.91847 56.2759 9.04489 56.1209 9.0461H53.1515C52.4916 9.0461 52.2474 9.26792 52.2474 10.0155V11.3109H56.0175C56.1725 11.3121 56.2979 11.4386 56.2991 11.5949V12.948C56.298 13.1043 56.1725 13.2307 56.0175 13.2319H52.2474V14.7426C52.2474 15.4835 52.4872 15.7119 53.1515 15.7119H56.1297C56.2847 15.7131 56.41 15.8396 56.4112 15.9959V17.3268C56.4134 17.5043 56.3276 17.5908 56.1297 17.6196Z" fill="#FDFDFD"/>
<path d="M66.7888 17.6751H64.5431C64.3865 17.6868 64.2394 17.598 64.1757 17.4533L62.2269 14.3477L60.4673 17.3956C60.3683 17.5664 60.2693 17.6795 60.1131 17.6795H58.0279C57.9733 17.6894 57.9172 17.6743 57.8747 17.6383C57.8322 17.6023 57.8078 17.5491 57.808 17.4932C57.8109 17.4583 57.8206 17.4244 57.8366 17.3934L60.9006 12.2492L57.808 7.36023C57.792 7.33397 57.7822 7.30438 57.7794 7.27372C57.7898 7.16141 57.8878 7.0784 57.9993 7.08739H60.2737C60.4299 7.08739 60.542 7.22936 60.6278 7.35802L62.4359 10.2417L64.1955 7.35802C64.2593 7.21218 64.3932 7.10986 64.5497 7.08739H66.6415C66.753 7.0784 66.851 7.16141 66.8614 7.27372C66.8586 7.30438 66.8488 7.33397 66.8328 7.36023L63.7534 12.2781L66.9582 17.3801C66.983 17.4234 66.9973 17.472 67 17.522C66.9736 17.6196 66.901 17.6751 66.7888 17.6751Z" fill="#FDFDFD"/>
<path d="M37.5279 7.11844C37.4223 7.11608 37.33 7.18962 37.3079 7.29369L35.2557 14.9511C35.2271 15.1086 35.1853 15.1729 35.0577 15.1729C34.9302 15.1729 34.8884 15.1152 34.8598 14.9511L32.8142 7.29369C32.792 7.18962 32.6997 7.11608 32.5942 7.11844H30.575C30.5072 7.11676 30.4425 7.1467 30.3995 7.19958C30.3565 7.25246 30.3401 7.32237 30.355 7.38907C30.355 7.38907 32.8603 16.1667 32.8867 16.2621C33.2211 17.3091 34.0327 17.8148 35.0643 17.8148C36.054 17.8506 36.9454 17.215 37.2419 16.2621C37.2815 16.1423 39.7318 7.38907 39.7318 7.38907C39.746 7.3227 39.7292 7.25345 39.6863 7.20112C39.6435 7.14879 39.5792 7.11914 39.5119 7.12066L37.5279 7.11844Z" fill="#FDFDFD"/>
<path d="M26.0835 9.08694e-05H5.02909C4.26723 0.00711534 3.56393 0.413606 3.1728 1.07299C2.78166 1.73237 2.75911 2.54955 3.11326 3.22986L5.22045 7.27594H1.40199C0.914149 7.26699 0.458043 7.51906 0.203033 7.93857C-0.0519775 8.35807 -0.0678058 8.88235 0.161425 9.31673L6.93613 22.2269C7.17923 22.6906 7.65664 22.9806 8.17669 22.9806C8.69674 22.9806 9.17415 22.6906 9.41725 22.2269L11.2561 18.7287L13.5657 23.1342C13.9412 23.8494 14.6779 24.2967 15.4804 24.2967C16.2829 24.2967 17.0196 23.8494 17.3951 23.1342L27.9531 3.11451C28.3027 2.45556 28.2817 1.65953 27.8979 1.02023C27.5141 0.380935 26.8245 -0.00682049 26.0835 9.08694e-05ZM16.6759 8.45826L12.0567 17.1937C11.898 17.4954 11.5871 17.6841 11.2484 17.6841C10.9097 17.6841 10.5988 17.4954 10.4401 17.1937L5.88033 8.54256C5.73965 8.27632 5.74786 7.95516 5.90197 7.69659C6.05607 7.43803 6.33345 7.28001 6.63258 7.28038H15.9632C16.2443 7.27601 16.5068 7.42191 16.6532 7.66397C16.7997 7.90602 16.8083 8.20813 16.6759 8.45826Z" fill="#FDFDFD"/>
</svg>
